<mxfile host="app.diagrams.net" modified="2024-04-03T03:51:58.530Z" agent="Mozilla/5.0 (X11; Linux x86_64) AppleWebKit/537.36 (KHTML, like Gecko) Chrome/116.0.5845.1077 YaBrowser/23.9.1.1077 Yowser/2.5 Safari/537.36" etag="nc4Gs_E7scS2GREhCwHw" version="24.2.1" type="device">
  <diagram name="Page-1" id="2YBvvXClWsGukQMizWep">
    <mxGraphModel dx="2555" dy="806" grid="1" gridSize="10" guides="1" tooltips="1" connect="1" arrows="1" fold="1" page="1" pageScale="1" pageWidth="1169" pageHeight="827" math="0" shadow="0">
      <root>
        <mxCell id="0" />
        <mxCell id="1" parent="0" />
        <mxCell id="aM9ryv3xv72pqoxQDRHE-1" value="user" style="shape=umlLifeline;perimeter=lifelinePerimeter;whiteSpace=wrap;html=1;container=0;dropTarget=0;collapsible=0;recursiveResize=0;outlineConnect=0;portConstraint=eastwest;newEdgeStyle={&quot;edgeStyle&quot;:&quot;elbowEdgeStyle&quot;,&quot;elbow&quot;:&quot;vertical&quot;,&quot;curved&quot;:0,&quot;rounded&quot;:0};" parent="1" vertex="1">
          <mxGeometry x="20" y="40" width="100" height="830" as="geometry" />
        </mxCell>
        <mxCell id="aM9ryv3xv72pqoxQDRHE-2" value="" style="html=1;points=[];perimeter=orthogonalPerimeter;outlineConnect=0;targetShapes=umlLifeline;portConstraint=eastwest;newEdgeStyle={&quot;edgeStyle&quot;:&quot;elbowEdgeStyle&quot;,&quot;elbow&quot;:&quot;vertical&quot;,&quot;curved&quot;:0,&quot;rounded&quot;:0};" parent="aM9ryv3xv72pqoxQDRHE-1" vertex="1">
          <mxGeometry x="45" y="40" width="10" height="770" as="geometry" />
        </mxCell>
        <mxCell id="t-6NdTUSjXpZ9V8EFRwM-35" value="" style="endArrow=classic;html=1;rounded=0;" edge="1" parent="aM9ryv3xv72pqoxQDRHE-1" source="aM9ryv3xv72pqoxQDRHE-2" target="aM9ryv3xv72pqoxQDRHE-1">
          <mxGeometry relative="1" as="geometry">
            <mxPoint x="82.5" y="520" as="sourcePoint" />
            <mxPoint x="182.5" y="520" as="targetPoint" />
            <Array as="points">
              <mxPoint y="480" />
              <mxPoint y="70" />
            </Array>
          </mxGeometry>
        </mxCell>
        <mxCell id="t-6NdTUSjXpZ9V8EFRwM-36" value="if you need&amp;nbsp;&lt;div&gt;something else&lt;/div&gt;" style="edgeLabel;resizable=0;html=1;;align=center;verticalAlign=middle;" connectable="0" vertex="1" parent="t-6NdTUSjXpZ9V8EFRwM-35">
          <mxGeometry relative="1" as="geometry" />
        </mxCell>
        <mxCell id="aM9ryv3xv72pqoxQDRHE-5" value="distribution system" style="shape=umlLifeline;perimeter=lifelinePerimeter;whiteSpace=wrap;html=1;container=0;dropTarget=0;collapsible=0;recursiveResize=0;outlineConnect=0;portConstraint=eastwest;newEdgeStyle={&quot;edgeStyle&quot;:&quot;elbowEdgeStyle&quot;,&quot;elbow&quot;:&quot;vertical&quot;,&quot;curved&quot;:0,&quot;rounded&quot;:0};" parent="1" vertex="1">
          <mxGeometry x="300" y="40" width="100" height="830" as="geometry" />
        </mxCell>
        <mxCell id="aM9ryv3xv72pqoxQDRHE-6" value="" style="html=1;points=[];perimeter=orthogonalPerimeter;outlineConnect=0;targetShapes=umlLifeline;portConstraint=eastwest;newEdgeStyle={&quot;edgeStyle&quot;:&quot;elbowEdgeStyle&quot;,&quot;elbow&quot;:&quot;vertical&quot;,&quot;curved&quot;:0,&quot;rounded&quot;:0};" parent="aM9ryv3xv72pqoxQDRHE-5" vertex="1">
          <mxGeometry x="45" y="50" width="10" height="750" as="geometry" />
        </mxCell>
        <mxCell id="t-6NdTUSjXpZ9V8EFRwM-43" value="" style="endArrow=classic;html=1;rounded=0;" edge="1" parent="aM9ryv3xv72pqoxQDRHE-5" source="aM9ryv3xv72pqoxQDRHE-6" target="aM9ryv3xv72pqoxQDRHE-5">
          <mxGeometry relative="1" as="geometry">
            <mxPoint x="40" y="610" as="sourcePoint" />
            <mxPoint x="40" y="630" as="targetPoint" />
            <Array as="points">
              <mxPoint x="100" y="620" />
              <mxPoint x="100" y="680" />
              <mxPoint x="90" y="680" />
            </Array>
          </mxGeometry>
        </mxCell>
        <mxCell id="t-6NdTUSjXpZ9V8EFRwM-44" value="save changes" style="edgeLabel;resizable=0;html=1;;align=center;verticalAlign=middle;" connectable="0" vertex="1" parent="t-6NdTUSjXpZ9V8EFRwM-43">
          <mxGeometry relative="1" as="geometry" />
        </mxCell>
        <mxCell id="leyM3UwxG29daaq_dMPx-2" value="display" style="shape=umlLifeline;perimeter=lifelinePerimeter;whiteSpace=wrap;html=1;container=0;dropTarget=0;collapsible=0;recursiveResize=0;outlineConnect=0;portConstraint=eastwest;newEdgeStyle={&quot;edgeStyle&quot;:&quot;elbowEdgeStyle&quot;,&quot;elbow&quot;:&quot;vertical&quot;,&quot;curved&quot;:0,&quot;rounded&quot;:0};" parent="1" vertex="1">
          <mxGeometry x="440" y="40" width="100" height="830" as="geometry" />
        </mxCell>
        <mxCell id="W4dHEYMce6fab20LzVwQ-41" value="" style="html=1;points=[];perimeter=orthogonalPerimeter;outlineConnect=0;targetShapes=umlLifeline;portConstraint=eastwest;newEdgeStyle={&quot;edgeStyle&quot;:&quot;elbowEdgeStyle&quot;,&quot;elbow&quot;:&quot;vertical&quot;,&quot;curved&quot;:0,&quot;rounded&quot;:0};" parent="leyM3UwxG29daaq_dMPx-2" vertex="1">
          <mxGeometry x="45" y="40" width="10" height="750" as="geometry" />
        </mxCell>
        <mxCell id="leyM3UwxG29daaq_dMPx-14" value="teacher" style="shape=umlLifeline;perimeter=lifelinePerimeter;whiteSpace=wrap;html=1;container=0;dropTarget=0;collapsible=0;recursiveResize=0;outlineConnect=0;portConstraint=eastwest;newEdgeStyle={&quot;edgeStyle&quot;:&quot;elbowEdgeStyle&quot;,&quot;elbow&quot;:&quot;vertical&quot;,&quot;curved&quot;:0,&quot;rounded&quot;:0};" parent="1" vertex="1">
          <mxGeometry x="160" y="40" width="100" height="830" as="geometry" />
        </mxCell>
        <mxCell id="leyM3UwxG29daaq_dMPx-15" value="" style="html=1;points=[];perimeter=orthogonalPerimeter;outlineConnect=0;targetShapes=umlLifeline;portConstraint=eastwest;newEdgeStyle={&quot;edgeStyle&quot;:&quot;elbowEdgeStyle&quot;,&quot;elbow&quot;:&quot;vertical&quot;,&quot;curved&quot;:0,&quot;rounded&quot;:0};" parent="leyM3UwxG29daaq_dMPx-14" vertex="1">
          <mxGeometry x="45" y="40" width="10" height="760" as="geometry" />
        </mxCell>
        <mxCell id="kkPYTB5MQU87AL9YrGFO-1" value="" style="endArrow=open;endFill=1;endSize=12;html=1;rounded=0;" parent="1" edge="1">
          <mxGeometry width="160" relative="1" as="geometry">
            <mxPoint x="75" y="109.99999999999989" as="sourcePoint" />
            <mxPoint x="345" y="110" as="targetPoint" />
            <Array as="points">
              <mxPoint x="260" y="110" />
            </Array>
          </mxGeometry>
        </mxCell>
        <mxCell id="kkPYTB5MQU87AL9YrGFO-2" value="Login" style="edgeLabel;html=1;align=center;verticalAlign=middle;resizable=0;points=[];" parent="kkPYTB5MQU87AL9YrGFO-1" vertex="1" connectable="0">
          <mxGeometry x="-0.178" relative="1" as="geometry">
            <mxPoint x="-46" as="offset" />
          </mxGeometry>
        </mxCell>
        <mxCell id="kkPYTB5MQU87AL9YrGFO-5" value="" style="shape=umlActor;verticalLabelPosition=bottom;verticalAlign=top;html=1;" parent="1" vertex="1">
          <mxGeometry x="62.5" y="10" width="15" height="30" as="geometry" />
        </mxCell>
        <mxCell id="kkPYTB5MQU87AL9YrGFO-6" value="" style="shape=umlActor;verticalLabelPosition=bottom;verticalAlign=top;html=1;" parent="1" vertex="1">
          <mxGeometry x="202.5" y="10" width="15" height="30" as="geometry" />
        </mxCell>
        <mxCell id="t-6NdTUSjXpZ9V8EFRwM-1" value="schedule" style="shape=umlLifeline;perimeter=lifelinePerimeter;whiteSpace=wrap;html=1;container=0;dropTarget=0;collapsible=0;recursiveResize=0;outlineConnect=0;portConstraint=eastwest;newEdgeStyle={&quot;edgeStyle&quot;:&quot;elbowEdgeStyle&quot;,&quot;elbow&quot;:&quot;vertical&quot;,&quot;curved&quot;:0,&quot;rounded&quot;:0};" vertex="1" parent="1">
          <mxGeometry x="720" y="40" width="100" height="830" as="geometry" />
        </mxCell>
        <mxCell id="t-6NdTUSjXpZ9V8EFRwM-2" value="" style="html=1;points=[];perimeter=orthogonalPerimeter;outlineConnect=0;targetShapes=umlLifeline;portConstraint=eastwest;newEdgeStyle={&quot;edgeStyle&quot;:&quot;elbowEdgeStyle&quot;,&quot;elbow&quot;:&quot;vertical&quot;,&quot;curved&quot;:0,&quot;rounded&quot;:0};" vertex="1" parent="t-6NdTUSjXpZ9V8EFRwM-1">
          <mxGeometry x="45" y="40" width="10" height="750" as="geometry" />
        </mxCell>
        <mxCell id="t-6NdTUSjXpZ9V8EFRwM-3" value="" style="endArrow=classic;html=1;rounded=0;" edge="1" parent="1">
          <mxGeometry relative="1" as="geometry">
            <mxPoint x="350" y="120" as="sourcePoint" />
            <mxPoint x="484.5" y="120" as="targetPoint" />
          </mxGeometry>
        </mxCell>
        <mxCell id="t-6NdTUSjXpZ9V8EFRwM-4" value="Label" style="edgeLabel;resizable=0;html=1;;align=center;verticalAlign=middle;" connectable="0" vertex="1" parent="t-6NdTUSjXpZ9V8EFRwM-3">
          <mxGeometry relative="1" as="geometry" />
        </mxCell>
        <mxCell id="t-6NdTUSjXpZ9V8EFRwM-5" value="show information" style="edgeLabel;html=1;align=center;verticalAlign=middle;resizable=0;points=[];" vertex="1" connectable="0" parent="t-6NdTUSjXpZ9V8EFRwM-3">
          <mxGeometry x="-0.0186" y="-2" relative="1" as="geometry">
            <mxPoint as="offset" />
          </mxGeometry>
        </mxCell>
        <mxCell id="t-6NdTUSjXpZ9V8EFRwM-6" value="" style="endArrow=classic;html=1;rounded=0;" edge="1" parent="1">
          <mxGeometry relative="1" as="geometry">
            <mxPoint x="619.5" y="170" as="sourcePoint" />
            <mxPoint x="495" y="170" as="targetPoint" />
            <Array as="points" />
          </mxGeometry>
        </mxCell>
        <mxCell id="t-6NdTUSjXpZ9V8EFRwM-7" value="Label" style="edgeLabel;resizable=0;html=1;;align=center;verticalAlign=middle;" connectable="0" vertex="1" parent="t-6NdTUSjXpZ9V8EFRwM-6">
          <mxGeometry relative="1" as="geometry" />
        </mxCell>
        <mxCell id="t-6NdTUSjXpZ9V8EFRwM-8" value="list of teachers" style="edgeLabel;html=1;align=center;verticalAlign=middle;resizable=0;points=[];" vertex="1" connectable="0" parent="t-6NdTUSjXpZ9V8EFRwM-6">
          <mxGeometry x="-0.02" relative="1" as="geometry">
            <mxPoint as="offset" />
          </mxGeometry>
        </mxCell>
        <mxCell id="t-6NdTUSjXpZ9V8EFRwM-9" value="" style="endArrow=classic;html=1;rounded=0;" edge="1" parent="1" source="W4dHEYMce6fab20LzVwQ-41" target="aM9ryv3xv72pqoxQDRHE-6">
          <mxGeometry relative="1" as="geometry">
            <mxPoint x="490" y="200" as="sourcePoint" />
            <mxPoint x="210" y="200" as="targetPoint" />
            <Array as="points">
              <mxPoint x="470" y="220" />
            </Array>
          </mxGeometry>
        </mxCell>
        <mxCell id="t-6NdTUSjXpZ9V8EFRwM-10" value="Label" style="edgeLabel;resizable=0;html=1;;align=center;verticalAlign=middle;" connectable="0" vertex="1" parent="t-6NdTUSjXpZ9V8EFRwM-9">
          <mxGeometry relative="1" as="geometry" />
        </mxCell>
        <mxCell id="t-6NdTUSjXpZ9V8EFRwM-11" value="choose teacher" style="edgeLabel;html=1;align=center;verticalAlign=middle;resizable=0;points=[];" vertex="1" connectable="0" parent="t-6NdTUSjXpZ9V8EFRwM-9">
          <mxGeometry x="0.0258" y="-4" relative="1" as="geometry">
            <mxPoint x="1" as="offset" />
          </mxGeometry>
        </mxCell>
        <mxCell id="t-6NdTUSjXpZ9V8EFRwM-12" value="courses" style="shape=umlLifeline;perimeter=lifelinePerimeter;whiteSpace=wrap;html=1;container=0;dropTarget=0;collapsible=0;recursiveResize=0;outlineConnect=0;portConstraint=eastwest;newEdgeStyle={&quot;edgeStyle&quot;:&quot;elbowEdgeStyle&quot;,&quot;elbow&quot;:&quot;vertical&quot;,&quot;curved&quot;:0,&quot;rounded&quot;:0};" vertex="1" parent="1">
          <mxGeometry x="570" y="40" width="100" height="830" as="geometry" />
        </mxCell>
        <mxCell id="t-6NdTUSjXpZ9V8EFRwM-13" value="" style="html=1;points=[];perimeter=orthogonalPerimeter;outlineConnect=0;targetShapes=umlLifeline;portConstraint=eastwest;newEdgeStyle={&quot;edgeStyle&quot;:&quot;elbowEdgeStyle&quot;,&quot;elbow&quot;:&quot;vertical&quot;,&quot;curved&quot;:0,&quot;rounded&quot;:0};" vertex="1" parent="t-6NdTUSjXpZ9V8EFRwM-12">
          <mxGeometry x="45" y="40" width="10" height="750" as="geometry" />
        </mxCell>
        <mxCell id="t-6NdTUSjXpZ9V8EFRwM-14" value="list of courses" style="endArrow=classic;html=1;rounded=0;" edge="1" parent="1" source="leyM3UwxG29daaq_dMPx-2">
          <mxGeometry relative="1" as="geometry">
            <mxPoint x="500" y="140" as="sourcePoint" />
            <mxPoint x="619.5" y="140" as="targetPoint" />
          </mxGeometry>
        </mxCell>
        <mxCell id="t-6NdTUSjXpZ9V8EFRwM-17" value="" style="endArrow=classic;html=1;rounded=0;" edge="1" parent="1">
          <mxGeometry relative="1" as="geometry">
            <mxPoint x="347.5" y="260" as="sourcePoint" />
            <mxPoint x="217.5" y="260" as="targetPoint" />
          </mxGeometry>
        </mxCell>
        <mxCell id="t-6NdTUSjXpZ9V8EFRwM-18" value="send question" style="edgeLabel;resizable=0;html=1;;align=center;verticalAlign=middle;" connectable="0" vertex="1" parent="t-6NdTUSjXpZ9V8EFRwM-17">
          <mxGeometry relative="1" as="geometry" />
        </mxCell>
        <mxCell id="t-6NdTUSjXpZ9V8EFRwM-20" value="" style="endArrow=classic;html=1;rounded=0;" edge="1" parent="1">
          <mxGeometry relative="1" as="geometry">
            <mxPoint x="212.25" y="310" as="sourcePoint" />
            <mxPoint x="487.75" y="310" as="targetPoint" />
          </mxGeometry>
        </mxCell>
        <mxCell id="t-6NdTUSjXpZ9V8EFRwM-21" value="Label" style="edgeLabel;resizable=0;html=1;;align=center;verticalAlign=middle;" connectable="0" vertex="1" parent="t-6NdTUSjXpZ9V8EFRwM-20">
          <mxGeometry relative="1" as="geometry" />
        </mxCell>
        <mxCell id="t-6NdTUSjXpZ9V8EFRwM-22" value="ansewer yes/no" style="edgeLabel;html=1;align=center;verticalAlign=middle;resizable=0;points=[];" vertex="1" connectable="0" parent="t-6NdTUSjXpZ9V8EFRwM-20">
          <mxGeometry x="-0.0218" y="-1" relative="1" as="geometry">
            <mxPoint as="offset" />
          </mxGeometry>
        </mxCell>
        <mxCell id="t-6NdTUSjXpZ9V8EFRwM-23" value="" style="endArrow=classic;html=1;rounded=0;" edge="1" parent="1">
          <mxGeometry relative="1" as="geometry">
            <mxPoint x="485" y="360" as="sourcePoint" />
            <mxPoint x="355" y="360" as="targetPoint" />
          </mxGeometry>
        </mxCell>
        <mxCell id="t-6NdTUSjXpZ9V8EFRwM-24" value="if yes&lt;div&gt;start distribution&lt;/div&gt;" style="edgeLabel;resizable=0;html=1;;align=center;verticalAlign=middle;" connectable="0" vertex="1" parent="t-6NdTUSjXpZ9V8EFRwM-23">
          <mxGeometry relative="1" as="geometry" />
        </mxCell>
        <mxCell id="t-6NdTUSjXpZ9V8EFRwM-25" value="" style="endArrow=classic;html=1;rounded=0;" edge="1" parent="1">
          <mxGeometry relative="1" as="geometry">
            <mxPoint x="492" y="420" as="sourcePoint" />
            <mxPoint x="77.5" y="420" as="targetPoint" />
          </mxGeometry>
        </mxCell>
        <mxCell id="t-6NdTUSjXpZ9V8EFRwM-26" value="Label" style="edgeLabel;resizable=0;html=1;;align=center;verticalAlign=middle;" connectable="0" vertex="1" parent="t-6NdTUSjXpZ9V8EFRwM-25">
          <mxGeometry relative="1" as="geometry" />
        </mxCell>
        <mxCell id="t-6NdTUSjXpZ9V8EFRwM-27" value="if" style="edgeLabel;html=1;align=center;verticalAlign=middle;resizable=0;points=[];" vertex="1" connectable="0" parent="t-6NdTUSjXpZ9V8EFRwM-25">
          <mxGeometry x="0.0133" y="4" relative="1" as="geometry">
            <mxPoint as="offset" />
          </mxGeometry>
        </mxCell>
        <mxCell id="t-6NdTUSjXpZ9V8EFRwM-28" value="if no\&lt;div&gt;try again&lt;/div&gt;" style="edgeLabel;html=1;align=center;verticalAlign=middle;resizable=0;points=[];" vertex="1" connectable="0" parent="t-6NdTUSjXpZ9V8EFRwM-25">
          <mxGeometry x="0.0133" y="2" relative="1" as="geometry">
            <mxPoint as="offset" />
          </mxGeometry>
        </mxCell>
        <mxCell id="t-6NdTUSjXpZ9V8EFRwM-29" value="" style="endArrow=classic;html=1;rounded=0;" edge="1" parent="1">
          <mxGeometry relative="1" as="geometry">
            <mxPoint x="355" y="480" as="sourcePoint" />
            <mxPoint x="769.5" y="480" as="targetPoint" />
            <Array as="points">
              <mxPoint x="440" y="480" />
            </Array>
          </mxGeometry>
        </mxCell>
        <mxCell id="t-6NdTUSjXpZ9V8EFRwM-30" value="Label" style="edgeLabel;resizable=0;html=1;;align=center;verticalAlign=middle;" connectable="0" vertex="1" parent="t-6NdTUSjXpZ9V8EFRwM-29">
          <mxGeometry relative="1" as="geometry" />
        </mxCell>
        <mxCell id="t-6NdTUSjXpZ9V8EFRwM-31" value="make changes" style="edgeLabel;html=1;align=center;verticalAlign=middle;resizable=0;points=[];" vertex="1" connectable="0" parent="t-6NdTUSjXpZ9V8EFRwM-29">
          <mxGeometry x="-0.0012" y="1" relative="1" as="geometry">
            <mxPoint as="offset" />
          </mxGeometry>
        </mxCell>
        <mxCell id="t-6NdTUSjXpZ9V8EFRwM-32" value="send message" style="endArrow=classic;html=1;rounded=0;" edge="1" parent="1">
          <mxGeometry relative="1" as="geometry">
            <mxPoint x="345" y="520" as="sourcePoint" />
            <mxPoint x="75" y="520" as="targetPoint" />
          </mxGeometry>
        </mxCell>
        <mxCell id="t-6NdTUSjXpZ9V8EFRwM-37" value="" style="endArrow=classic;html=1;rounded=0;" edge="1" parent="1" target="aM9ryv3xv72pqoxQDRHE-5">
          <mxGeometry relative="1" as="geometry">
            <mxPoint x="70" y="590" as="sourcePoint" />
            <mxPoint x="170" y="590" as="targetPoint" />
          </mxGeometry>
        </mxCell>
        <mxCell id="t-6NdTUSjXpZ9V8EFRwM-38" value="that`s all" style="edgeLabel;resizable=0;html=1;;align=center;verticalAlign=middle;" connectable="0" vertex="1" parent="t-6NdTUSjXpZ9V8EFRwM-37">
          <mxGeometry relative="1" as="geometry" />
        </mxCell>
        <mxCell id="t-6NdTUSjXpZ9V8EFRwM-41" value="" style="endArrow=classic;html=1;rounded=0;" edge="1" parent="1">
          <mxGeometry relative="1" as="geometry">
            <mxPoint x="350" y="750" as="sourcePoint" />
            <mxPoint x="765" y="750" as="targetPoint" />
            <Array as="points">
              <mxPoint x="660" y="750" />
            </Array>
          </mxGeometry>
        </mxCell>
        <mxCell id="t-6NdTUSjXpZ9V8EFRwM-42" value="save changes" style="edgeLabel;resizable=0;html=1;;align=center;verticalAlign=middle;" connectable="0" vertex="1" parent="t-6NdTUSjXpZ9V8EFRwM-41">
          <mxGeometry relative="1" as="geometry" />
        </mxCell>
      </root>
    </mxGraphModel>
  </diagram>
</mxfile>
